HIERARCHY
ROOT hip
{
  OFFSET 0 0 0
  CHANNELS 6 Xposition Yposition Zposition Zrotation Yrotation Xrotation
  JOINT abdomen
  {
    OFFSET 0 20.6881 -0.73152
    CHANNELS 3 Zrotation Xrotation Yrotation
    JOINT chest
    {
      OFFSET 0 11.7043 -0.48768
      CHANNELS 3 Zrotation Xrotation Yrotation
      JOINT neck
      {
        OFFSET 0 22.1894 -2.19456
        CHANNELS 3 Zrotation Xrotation Yrotation
        JOINT head
        {
          OFFSET -0.24384 7.07133 1.2192
          CHANNELS 3 Zrotation Xrotation Yrotation
          JOINT leftEye
          {
            OFFSET 4.14528 8.04674 8.04672
            CHANNELS 3 Zrotation Xrotation Yrotation
            End Site
            {
              OFFSET 1 0 0
            }
          }
          JOINT rightEye
          {
            OFFSET -3.6576 8.04674 8.04672
            CHANNELS 3 Zrotation Xrotation Yrotation
            End Site
            {
              OFFSET 1 0 0
            }
          }
        }
      }
      JOINT rCollar
      {
        OFFSET -2.68224 19.2634 -4.8768
        CHANNELS 3 Zrotation Xrotation Yrotation
        JOINT rShldr
        {
          OFFSET -8.77824 -1.95073 1.46304
          CHANNELS 3 Zrotation Xrotation Yrotation
          JOINT rForeArm
          {
            OFFSET -28.1742 -1.7115 0.48768
            CHANNELS 3 Zrotation Xrotation Yrotation
            JOINT rHand
            {
              OFFSET -22.5879 0.773209 7.07136
              CHANNELS 3 Zrotation Xrotation Yrotation
              JOINT rThumb1
              {
                OFFSET -1.2192 -0.487915 3.41376
                CHANNELS 3 Zrotation Xrotation Yrotation
                JOINT rThumb2
                {
                  OFFSET -3.37035 -0.52449 3.41376
                  CHANNELS 3 Zrotation Xrotation Yrotation
                  End Site
                  {
                    OFFSET -1.78271 -1.18214 1.43049
                  }
                }
              }
              JOINT rIndex1
              {
                OFFSET -7.75947 0.938293 5.60832
                CHANNELS 3 Zrotation Xrotation Yrotation
                JOINT rIndex2
                {
                  OFFSET -2.54057 -0.884171 1.56538
                  CHANNELS 3 Zrotation Xrotation Yrotation
                  End Site
                  {
                    OFFSET -1.62519 -0.234802 1.16502
                  }
                }
              }
              JOINT rMid1
              {
                OFFSET -8.24714 1.18213 3.41376
                CHANNELS 3 Zrotation Xrotation Yrotation
                JOINT rMid2
                {
                  OFFSET -3.10165 -0.590103 1.0647
                  CHANNELS 3 Zrotation Xrotation Yrotation
                  End Site
                  {
                    OFFSET -2.48547 -0.328903 0.83742
                  }
                }
              }
              JOINT rRing1
              {
                OFFSET -8.82822 0.546677 1.51678
                CHANNELS 3 Zrotation Xrotation Yrotation
                JOINT rRing2
                {
                  OFFSET -2.60934 -0.819778 -0.0198488
                  CHANNELS 3 Zrotation Xrotation Yrotation
                  End Site
                  {
                    OFFSET -2.33842 -0.294052 0.168128
                  }
                }
              }
              JOINT rPinky1
              {
                OFFSET -8.27202 -0.0477905 -0.4584
                CHANNELS 3 Zrotation Xrotation Yrotation
                JOINT rPinky2
                {
                  OFFSET -1.82734 -0.647385 -0.700984
                  CHANNELS 3 Zrotation Xrotation Yrotation
                  End Site
                  {
                    OFFSET -1.69225 -0.51767 -0.607171
                  }
                }
              }
            }
          }
        }
      }
      JOINT lCollar
      {
        OFFSET 2.68224 19.2634 -4.8768
        CHANNELS 3 Zrotation Xrotation Yrotation
        JOINT lShldr
        {
          OFFSET 8.77824 -1.95073 1.46304
          CHANNELS 3 Zrotation Xrotation Yrotation
          JOINT lForeArm
          {
            OFFSET 28.1742 -1.7115 0.48768
            CHANNELS 3 Zrotation Xrotation Yrotation
            JOINT lHand
            {
              OFFSET 22.5879 0.773209 7.07136
              CHANNELS 3 Zrotation Xrotation Yrotation
              JOINT lThumb1
              {
                OFFSET 1.2192 -0.487915 3.41376
                CHANNELS 3 Zrotation Xrotation Yrotation
                JOINT lThumb2
                {
                  OFFSET 3.37035 -0.52449 3.41376
                  CHANNELS 3 Zrotation Xrotation Yrotation
                  End Site
                  {
                    OFFSET 1.78271 -1.18214 1.43049
                  }
                }
              }
              JOINT lIndex1
              {
                OFFSET 7.75947 0.938293 5.60832
                CHANNELS 3 Zrotation Xrotation Yrotation
                JOINT lIndex2
                {
                  OFFSET 2.54057 -0.884171 1.56538
                  CHANNELS 3 Zrotation Xrotation Yrotation
                  End Site
                  {
                    OFFSET 1.62519 -0.234802 1.16502
                  }
                }
              }
              JOINT lMid1
              {
                OFFSET 8.24714 1.18213 3.41376
                CHANNELS 3 Zrotation Xrotation Yrotation
                JOINT lMid2
                {
                  OFFSET 3.10165 -0.590103 1.0647
                  CHANNELS 3 Zrotation Xrotation Yrotation
                  End Site
                  {
                    OFFSET 2.48547 -0.328903 0.83742
                  }
                }
              }
              JOINT lRing1
              {
                OFFSET 8.82822 0.546677 1.51678
                CHANNELS 3 Zrotation Xrotation Yrotation
                JOINT lRing2
                {
                  OFFSET 2.60934 -0.819778 -0.0198488
                  CHANNELS 3 Zrotation Xrotation Yrotation
                  End Site
                  {
                    OFFSET 2.33842 -0.294052 0.168128
                  }
                }
              }
              JOINT lPinky1
              {
                OFFSET 8.27202 -0.0477905 -0.4584
                CHANNELS 3 Zrotation Xrotation Yrotation
                JOINT lPinky2
                {
                  OFFSET 1.82734 -0.647385 -0.700984
                  CHANNELS 3 Zrotation Xrotation Yrotation
                  End Site
                  {
                    OFFSET 1.69225 -0.51767 -0.607171
                  }
                }
              }
            }
          }
        }
      }
    }
  }
  JOINT rButtock
  {
    OFFSET -8.77824 4.35084 1.2192
    CHANNELS 3 Zrotation Xrotation Yrotation
    JOINT rThigh
    {
      OFFSET 0 -1.70687 -2.19456
      CHANNELS 3 Zrotation Xrotation Yrotation
      JOINT rShin
      {
        OFFSET 0 -36.8199 0.73152
        CHANNELS 3 Zrotation Xrotation Yrotation
        JOINT rFoot
        {
          OFFSET 0.73152 -45.1104 -5.12064
          CHANNELS 3 Zrotation Xrotation Yrotation
          End Site
          {
            OFFSET -1.1221 -3.69964 12.103
          }
        }
      }
    }
  }
  JOINT lButtock
  {
    OFFSET 8.77824 4.35084 1.2192
    CHANNELS 3 Zrotation Xrotation Yrotation
    JOINT lThigh
    {
      OFFSET 0 -1.70687 -2.19456
      CHANNELS 3 Zrotation Xrotation Yrotation
      JOINT lShin
      {
        OFFSET 0 -36.8199 0.73152
        CHANNELS 3 Zrotation Xrotation Yrotation
        JOINT lFoot
        {
          OFFSET -0.73152 -45.1104 -5.12064
          CHANNELS 3 Zrotation Xrotation Yrotation
          End Site
          {
            OFFSET 1.1221 -3.69964 12.103
          }
        }
      }
    }
  }
}
MOTION
Frames:	4
Frame Time:	0.03333
-15.3309 69.8989 -84.3769 3.6528000000000005 26.333 2.3635 -10.134300000000001 11.3122 2.38079 2.68165 -8.48859 0.58719 -7.67155 16.368599999999997 -10.2493 10.0292 -24.0473 -18.0094 -0.0 0.0 0.0 -0.0 0.0 0.0 1.64915e-14 4.12508e-14 -4.266300000000001e-13 36.8903 23.9595 23.9562 -26.0761 -23.6315 57.0841 -0.034270499999999995 5.28588 0.7450060000000001 -6.64555e-10 -3.4183e-09 2.31722e-09 -1.13892e-09 -5.87176e-09 4.00825e-09 -6.64555e-10 -3.4183400000000004e-09 2.31721e-09 7.730909999999999 5.47488 0.417314 -6.64555e-10 -3.4183e-09 2.31721e-09 2.90554 0.965183 0.102902 -6.64545e-10 -3.4183e-09 2.31721e-09 10.278600000000003 0.731801 0.0259123 -6.64557e-10 -3.4183e-09 2.31722e-09 2.22167 -0.733487 -0.20892000000000002 1.65331e-14 4.12451e-14 -4.2674299999999997e-13 -86.1408 62.8476 13.0127 28.1276 -39.67759999999999 -83.3467 2.9242 -42.7463 7.463500000000001 1.27862e-10 -7.587459999999999e-11 1.4819599999999998e-10 2.20755e-10 -1.08971e-10 2.53358e-10 1.27862e-10 -7.58759e-11 1.48209e-10 -7.730909999999999 5.47488 -0.417314 1.2786599999999999e-10 -7.58866e-11 1.48203e-10 -2.90554 0.965183 -0.102902 1.27862e-10 -7.587390000000001e-11 1.482e-10 -10.278600000000003 0.731801 -0.0259123 1.27873e-10 -7.58635e-11 1.4819599999999998e-10 -2.22167 -0.733487 0.20892000000000002 -2.03217e-16 0.0 -3.88251e-19 -44.7365 -56.5819 -37.6876 -1.8573 68.50029999999998 2.27455 0.636387 -3.5191900000000005 9.71349 2.03217e-16 0.0 3.88251e-19 11.2975 8.90034 3.92667 -0.006342719999999999 37.0754 -2.13996 18.2616 -17.7399 37.0295
-15.3062 69.7328 -84.3384 3.6088000000000005 26.2339 2.4072 -10.1876 11.1604 2.41206 2.7376500000000004 -8.4473 0.60419 -7.71921 16.3555 -10.2575 10.1325 -23.9616 -18.0072 -0.0 0.0 0.0 -0.0 0.0 0.0 1.09992e-13 -2.9222e-14 -7.553170000000001e-13 36.6313 24.2057 24.013 -26.042599999999997 -23.5445 56.9432 -0.040702 5.75694 0.811834 -1.50202e-09 -7.11503e-09 3.894360000000001e-09 -2.57795e-09 -1.22278e-08 6.737539999999999e-09 -1.50202e-09 -7.11508e-09 3.89437e-09 7.730909999999999 5.47488 0.417314 -1.50202e-09 -7.11503e-09 3.894360000000001e-09 2.90554 0.965183 0.102902 -1.50201e-09 -7.11503e-09 3.894360000000001e-09 10.278600000000003 0.731801 0.0259123 -1.50202e-09 -7.11503e-09 3.89437e-09 2.22167 -0.733487 -0.20892000000000002 1.0995599999999998e-13 -2.922109999999999e-14 -7.55375e-13 -85.4694 63.1815 12.2414 28.1337 -39.639 -83.2776 3.02917 -43.3259 7.61732 6.01904e-10 1.68958e-09 4.81814e-10 1.03194e-09 2.7994e-09 8.390860000000001e-10 6.019e-10 1.68959e-09 4.81818e-10 -7.730909999999999 5.47488 -0.417314 6.01906e-10 1.68959e-09 4.81813e-10 -2.90554 0.965183 -0.102902 6.018990000000001e-10 1.68959e-09 4.81814e-10 -10.278600000000003 0.731801 -0.0259123 6.01909e-10 1.6895999999999998e-09 4.81811e-10 -2.22167 -0.733487 0.20892000000000002 -2.03217e-16 0.0 -3.88251e-19 -45.33939999999999 -56.8337 -38.3712 -1.90319 68.8628 2.3262000000000005 0.719536 -3.56948 10.01 2.03217e-16 0.0 3.88251e-19 11.332 8.77494 4.130869999999999 -0.00205481 37.3942 -2.1568699999999996 18.4268 -17.959199999999996 37.0121
-15.284 69.57 -84.2524 3.4657 25.9926 2.3801 -10.1515 11.0822 2.43449 2.72436 -8.4263 0.613543 -7.69356 16.361100000000004 -10.284600000000001 10.1402 -23.9002 -18.0621 -0.0 0.0 0.0 -0.0 0.0 0.0 1.3284400000000003e-13 -1.13585e-13 -4.534450000000001e-13 36.4039 24.4378 24.0295 -26.0203 -23.487 56.8504 -0.04517379999999999 6.05068 0.85358 -8.759989999999999e-10 -3.84693e-09 2.05993e-09 -1.50371e-09 -6.60735e-09 3.5636599999999997e-09 -8.75998e-10 -3.84698e-09 2.05994e-09 7.730909999999999 5.47488 0.417314 -8.76e-10 -3.84694e-09 2.05993e-09 2.90554 0.965183 0.102902 -8.759939999999999e-10 -3.84694e-09 2.05993e-09 10.278600000000003 0.731801 0.0259123 -8.760049999999999e-10 -3.84693e-09 2.05994e-09 2.22167 -0.733487 -0.20892000000000002 1.32771e-13 -1.13583e-13 -4.53508e-13 -84.82160000000002 63.5022 11.5383 28.139199999999995 -39.6037 -83.2146 3.0624 -43.504 7.66542 8.75895e-10 4.51904e-09 4.879100000000001e-10 1.50081e-09 7.529969999999999e-09 8.633459999999998e-10 8.758910000000001e-10 4.519050000000001e-09 4.87917e-10 -7.730909999999999 5.47488 -0.417314 8.758969999999999e-10 4.519050000000001e-09 4.87909e-10 -2.90554 0.965183 -0.102902 8.7589e-10 4.519050000000001e-09 4.87911e-10 -10.278600000000003 0.731801 -0.0259123 8.75898e-10 4.519050000000001e-09 4.87909e-10 -2.22167 -0.733487 0.20892000000000002 -2.03217e-16 0.0 -3.88251e-19 -45.9391 -56.9272 -39.148700000000005 -1.94585 69.2026 2.37956 0.8251600000000001 -3.63893 10.3828 2.03217e-16 0.0 3.88251e-19 11.4071 8.81783 4.307850000000001 -0.000431084 37.5667 -2.1719 18.6255 -18.2226 37.0288
-15.209 69.4272 -84.1762 3.4151 25.8934 2.3498 -10.0261 11.0777 2.4481 2.64181 -8.425610000000002 0.615252 -7.594550000000001 16.3854 -10.3306 10.052499999999998 -23.8631 -18.1741 -0.0 0.0 0.0 -0.0 0.0 0.0 8.50486e-14 -2.1183999999999998e-13 4.78984e-13 36.2084 24.656 24.0054 -26.0096 -23.4593 56.8055 -0.0469076 6.1671 0.870129 1.2135e-09 6.385989999999999e-09 -3.18608e-09 2.08379e-09 1.09896e-08 -5.51339e-09 1.2135e-09 6.38595e-09 -3.18608e-09 7.730909999999999 5.47488 0.417314 1.21349e-09 6.38596e-09 -3.18608e-09 2.90554 0.965183 0.102902 1.21349e-09 6.38597e-09 -3.18608e-09 10.278600000000003 0.731801 0.0259123 1.21349e-09 6.385989999999999e-09 -3.18607e-09 2.22167 -0.733487 -0.20892000000000002 8.49788e-14 -2.1183900000000004e-13 4.788580000000001e-13 -84.20079999999999 63.81060000000001 10.9063 28.144199999999998 -39.5717 -83.1576 3.02115 -43.2807 7.60541 9.49836e-10 8.41251e-09 1.66486e-10 1.62737e-09 1.40827e-08 3.26138e-10 9.498319999999998e-10 8.41251e-09 1.6650500000000004e-10 -7.730909999999999 5.47488 -0.417314 9.49837e-10 8.41251e-09 1.6649299999999999e-10 -2.90554 0.965183 -0.102902 9.498319999999998e-10 8.41251e-09 1.6649299999999999e-10 -10.278600000000003 0.731801 -0.0259123 9.49841e-10 8.41251e-09 1.66489e-10 -2.22167 -0.733487 0.20892000000000002 -2.03217e-16 0.0 -3.88251e-19 -46.525800000000004 -56.8608 -40.0098 -1.9851900000000002 69.5196 2.43453 0.953929 -3.7273 10.8319 2.03217e-16 0.0 3.88251e-19 11.5213 9.02895 4.45786 -0.00163879 37.5928 -2.1849 18.8584 -18.5298 37.080099999999995
